<svg xmlns="http://www.w3.org/2000/svg" xmlns:xlink="http://www.w3.org/1999/xlink" width="500" zoomAndPan="magnify" viewBox="0 0 375 374.999991" height="500" preserveAspectRatio="xMidYMid meet" version="1.0"><defs><g/><clipPath id="id1"><path d="M 0 21.167969 L 367.796875 21.167969 L 367.796875 333 L 0 333 Z M 0 21.167969 " clip-rule="nonzero"/></clipPath><clipPath id="id2"><path d="M 353.464844 218.828125 L 353.921875 218.570312 C 353.757812 218.667969 353.628906 218.730469 353.464844 218.828125 Z M 263.566406 332.292969 C 265.609375 321.027344 256.199219 285.375 247.472656 279.933594 C 246.433594 279.285156 245.429688 278.703125 244.457031 278.183594 C 280.792969 283.171875 331.664062 254.546875 329.652344 226.277344 C 338.996094 224.429688 347.171875 222.164062 353.433594 218.828125 C 355.054688 218.179688 356.546875 217.242188 357.878906 216.042969 C 362.03125 212.351562 364.820312 206.265625 366.25 198.460938 C 366.996094 194.476562 367.351562 190.042969 367.386719 185.28125 C 357.132812 193.375 346.265625 200.015625 334.714844 205.195312 C 322.675781 210.605469 309.960938 214.457031 296.527344 216.722656 C 295.488281 220.804688 291.757812 223.847656 287.347656 223.847656 C 282.089844 223.847656 277.839844 219.605469 277.839844 214.359375 C 277.839844 209.113281 282.089844 204.871094 287.347656 204.871094 C 290.816406 204.871094 293.867188 206.71875 295.523438 209.503906 C 308.273438 207.332031 320.339844 203.675781 331.761719 198.523438 C 332.832031 198.039062 333.902344 197.554688 334.972656 197.035156 C 336.464844 190.074219 336.5625 183.726562 335.363281 177.960938 C 334.648438 174.5625 333.449219 171.355469 331.761719 168.34375 C 331.046875 168.507812 330.335938 168.605469 329.554688 168.605469 C 324.300781 168.605469 320.050781 164.363281 320.050781 159.117188 C 320.050781 153.871094 324.300781 149.628906 329.554688 149.628906 C 334.8125 149.628906 339.0625 153.871094 339.0625 159.117188 C 339.0625 160.898438 338.574219 162.582031 337.699219 164.039062 C 339.96875 167.890625 341.558594 172.035156 342.5 176.472656 C 343.570312 181.589844 343.765625 187.03125 343.050781 192.859375 C 351.453125 188.164062 359.4375 182.59375 367.058594 176.148438 C 366.152344 164.554688 363.425781 151.507812 358.882812 138.003906 C 354.210938 124.113281 357.847656 119.964844 335.589844 100.796875 C 328.160156 94.417969 327.902344 79.683594 321.25 72.105469 C 309.214844 58.410156 294.777344 46.332031 277.90625 37.394531 C 275.34375 54.003906 269.144531 66.796875 259.316406 75.699219 C 259.21875 75.796875 259.085938 75.894531 258.992188 75.992188 C 264.214844 84.410156 267.167969 92.441406 267.847656 100.117188 C 268.367188 105.816406 267.621094 111.257812 265.640625 116.46875 C 267.035156 118.121094 267.878906 120.257812 267.878906 122.589844 C 267.878906 127.835938 263.628906 132.078125 258.375 132.078125 C 253.117188 132.078125 248.867188 127.835938 248.867188 122.589844 C 248.867188 117.34375 253.117188 113.101562 258.375 113.101562 C 258.601562 113.101562 258.828125 113.101562 259.054688 113.132812 C 260.417969 109.152344 260.9375 105.039062 260.546875 100.730469 C 259.996094 94.386719 257.53125 87.617188 253.183594 80.460938 C 243.578125 86.808594 231.414062 90.207031 216.683594 90.695312 C 215.257812 94.09375 211.882812 96.488281 207.925781 96.488281 C 202.667969 96.488281 198.417969 92.246094 198.417969 87 C 198.417969 81.757812 202.667969 77.515625 207.925781 77.515625 C 211.882812 77.515625 215.289062 79.941406 216.714844 83.40625 C 232.875 82.824219 245.429688 78.453125 254.382812 70.292969 C 263.371094 62.132812 268.917969 49.988281 271.027344 33.929688 C 250.003906 24.214844 225.476562 19.292969 197.378906 21.6875 C 194.234375 24.34375 191.34375 27 188.71875 29.621094 C 193.257812 37.621094 200.589844 41.441406 210.714844 40.988281 C 211.753906 36.90625 215.484375 33.863281 219.894531 33.863281 C 225.152344 33.863281 229.402344 38.105469 229.402344 43.351562 C 229.402344 48.597656 225.152344 52.839844 219.894531 52.839844 C 216.457031 52.839844 213.4375 50.992188 211.753906 48.273438 C 199.132812 49.148438 189.722656 44.777344 183.558594 35.222656 C 178.820312 40.824219 175.382812 46.332031 173.242188 51.738281 C 169.640625 60.835938 169.800781 69.773438 173.695312 78.550781 C 174.085938 78.519531 174.472656 78.484375 174.863281 78.484375 C 180.121094 78.484375 184.371094 82.726562 184.371094 87.972656 C 184.371094 93.21875 180.121094 97.460938 174.863281 97.460938 C 169.609375 97.460938 165.359375 93.21875 165.359375 87.972656 C 165.359375 85.804688 166.105469 83.796875 167.335938 82.210938 C 162.308594 71.425781 161.984375 60.382812 166.460938 49.113281 C 169.378906 41.730469 174.34375 34.25 181.417969 26.738281 C 181.546875 26.578125 181.675781 26.414062 181.839844 26.285156 C 182.8125 25.25 183.816406 24.246094 184.855469 23.210938 C 184.109375 23.339844 183.363281 23.4375 182.585938 23.566406 C 171.390625 23.078125 157.765625 25.25 147.417969 28.714844 C 135.023438 31.144531 123.40625 34.121094 112.570312 37.683594 C 110.398438 47.203125 109.101562 56.367188 108.644531 65.175781 C 108.0625 76.867188 108.96875 87.910156 111.4375 98.269531 C 116.140625 98.820312 119.808594 102.835938 119.808594 107.660156 C 119.808594 112.90625 115.554688 117.148438 110.300781 117.148438 C 105.042969 117.148438 100.792969 112.90625 100.792969 107.660156 C 100.792969 104.648438 102.191406 101.960938 104.394531 100.214844 C 102.058594 90.464844 100.988281 80.203125 101.214844 69.417969 C 98.652344 71.683594 95.863281 73.433594 92.847656 74.632812 C 89.179688 76.089844 85.222656 76.738281 81.035156 76.574219 C 79.347656 79.261719 76.363281 81.042969 72.992188 81.042969 C 67.734375 81.042969 63.484375 76.800781 63.484375 71.554688 C 63.484375 66.308594 67.734375 62.066406 72.992188 62.066406 C 77.46875 62.066406 81.199219 65.144531 82.203125 69.320312 C 85.058594 69.355469 87.71875 68.867188 90.152344 67.898438 C 94.628906 66.117188 98.554688 62.585938 101.960938 57.371094 C 102.515625 51.867188 103.390625 46.234375 104.558594 40.46875 C 55.277344 58.570312 20.203125 87.8125 15.011719 134.765625 C -4.421875 150.210938 -1.890625 175.308594 7 192.761719 C 9.402344 197.457031 11.832031 201.441406 14.558594 204.96875 C 24.097656 218.117188 34.804688 229.160156 46.710938 238.097656 C 48.527344 218.34375 55.339844 203.15625 67.183594 192.503906 C 63.0625 185.347656 58.585938 180.714844 53.6875 178.546875 C 50.148438 176.992188 46.257812 176.730469 42.070312 177.800781 C 41.359375 182.335938 37.433594 185.765625 32.695312 185.765625 C 27.4375 185.765625 23.1875 181.523438 23.1875 176.277344 C 23.1875 171.03125 27.4375 166.789062 32.695312 166.789062 C 35.84375 166.789062 38.632812 168.3125 40.351562 170.675781 C 46.09375 169.21875 51.511719 169.609375 56.605469 171.84375 C 62.707031 174.53125 68.15625 179.875 72.925781 187.902344 C 79.867188 183.113281 88.175781 179.582031 97.777344 177.316406 C 92.976562 172.554688 89.277344 167.015625 86.648438 160.703125 C 84.054688 154.484375 82.5625 147.554688 82.140625 139.882812 C 78.699219 138.457031 76.265625 135.089844 76.265625 131.105469 C 76.265625 125.859375 80.515625 121.617188 85.773438 121.617188 C 91.027344 121.617188 95.277344 125.859375 95.277344 131.105469 C 95.277344 135.023438 92.878906 138.390625 89.472656 139.847656 C 89.894531 146.519531 91.191406 152.542969 93.429688 157.917969 C 96.351562 164.914062 100.828125 170.804688 106.863281 175.632812 C 115.914062 174.335938 125.972656 174.042969 137.066406 174.691406 L 137.390625 174.722656 C 147.742188 176.3125 155.882812 175.015625 161.722656 170.804688 C 158.351562 169.835938 155.203125 167.890625 152.21875 165.042969 C 148.714844 161.640625 145.503906 156.914062 142.613281 150.792969 C 137.359375 150.792969 133.109375 146.550781 133.109375 141.304688 C 133.109375 136.058594 137.359375 131.820312 142.613281 131.820312 C 147.871094 131.820312 152.121094 136.058594 152.121094 141.304688 C 152.121094 143.898438 151.082031 146.261719 149.363281 147.976562 C 151.828125 153.125 154.488281 157.078125 157.3125 159.828125 C 160.554688 162.96875 164.058594 164.460938 167.824219 164.265625 C 171.425781 158.597656 173.535156 150.730469 174.214844 140.660156 C 174.214844 140.527344 174.246094 140.433594 174.246094 140.300781 C 174.378906 139.167969 174.605469 138.101562 174.894531 137.128906 C 176.195312 133.144531 179.015625 130.394531 183.332031 128.808594 C 187.03125 127.445312 191.898438 127.058594 197.898438 127.609375 C 200.820312 127.867188 204.0625 128.386719 207.566406 129.097656 C 210.226562 126.734375 212.109375 124.207031 213.210938 121.519531 C 213.472656 120.90625 213.667969 120.289062 213.859375 119.644531 C 210.488281 118.1875 208.117188 114.851562 208.117188 110.933594 C 208.117188 105.6875 212.367188 101.445312 217.625 101.445312 C 222.878906 101.445312 227.128906 105.6875 227.128906 110.933594 C 227.128906 114.851562 224.730469 118.21875 221.324219 119.675781 C 221.03125 121.230469 220.578125 122.75 219.960938 124.242188 C 218.988281 126.636719 217.59375 128.902344 215.808594 131.042969 C 216.976562 131.363281 218.144531 131.6875 219.34375 132.046875 C 221.097656 129.972656 223.691406 128.644531 226.644531 128.644531 C 231.898438 128.644531 236.148438 132.886719 236.148438 138.132812 C 236.148438 143.378906 231.898438 147.621094 226.644531 147.621094 C 221.710938 147.621094 217.625 143.832031 217.203125 139.039062 C 213.894531 138.066406 210.777344 137.289062 207.925781 136.644531 C 207.859375 136.644531 207.761719 136.609375 207.695312 136.578125 C 203.835938 135.738281 200.363281 135.152344 197.28125 134.863281 C 192.382812 134.410156 188.585938 134.667969 185.894531 135.671875 C 183.785156 136.449219 182.457031 137.710938 181.871094 139.460938 C 181.710938 139.980469 181.578125 140.527344 181.515625 141.078125 L 181.515625 141.175781 C 180.703125 153.320312 177.847656 162.839844 172.949219 169.707031 C 172.882812 169.800781 172.820312 169.898438 172.753906 169.996094 C 171.523438 171.714844 170.125 173.234375 168.632812 174.628906 C 160.945312 181.621094 150.238281 184.082031 136.449219 181.976562 C 108.777344 180.359375 88.109375 185.023438 74.351562 195.96875 C 74.222656 196.097656 74.0625 196.226562 73.898438 196.324219 C 73.378906 196.742188 72.894531 197.164062 72.40625 197.585938 C 60.984375 207.6875 54.757812 222.8125 53.71875 242.953125 C 85.351562 263.710938 124.769531 270.574219 171.976562 263.546875 C 180.25 262.640625 188.328125 261.121094 196.242188 259.207031 C 199.746094 262.769531 203.609375 266.007812 207.730469 270.347656 C 243.578125 308.105469 238.421875 338.125 263.566406 332.199219 Z M 264.082031 235.503906 C 262.332031 237.414062 259.832031 238.613281 257.042969 238.613281 C 256.039062 238.613281 255.066406 238.453125 254.1875 238.160156 C 250.359375 236.929688 247.570312 233.367188 247.570312 229.125 C 247.570312 225.855469 249.226562 223.007812 251.722656 221.289062 C 251.007812 218.859375 250.132812 216.53125 249.09375 214.296875 C 247.179688 210.183594 244.683594 206.425781 241.601562 203.027344 C 232.546875 203.902344 224.179688 204.9375 216.554688 206.136719 C 216.390625 206.167969 216.230469 206.199219 216.066406 206.199219 C 204.160156 208.078125 193.972656 210.34375 185.503906 212.96875 C 176.292969 215.847656 169.1875 219.152344 164.253906 222.84375 C 164.742188 223.976562 165.03125 225.238281 165.03125 226.566406 C 165.03125 231.8125 160.78125 236.054688 155.527344 236.054688 C 150.269531 236.054688 146.019531 231.8125 146.019531 226.566406 C 146.019531 221.320312 150.269531 217.078125 155.527344 217.078125 C 156.761719 217.078125 157.929688 217.308594 159 217.726562 C 164.742188 213.195312 172.851562 209.277344 183.332031 206.003906 C 190.339844 203.835938 198.417969 201.894531 207.664062 200.242188 C 205.167969 197.359375 203.1875 193.992188 201.792969 190.136719 C 200.300781 186.089844 199.457031 181.523438 199.195312 176.441406 C 195.855469 174.984375 193.519531 171.648438 193.519531 167.761719 C 193.519531 162.515625 197.769531 158.273438 203.023438 158.273438 C 208.28125 158.273438 212.53125 162.515625 212.53125 167.761719 C 212.53125 171.777344 210.03125 175.179688 206.527344 176.570312 C 206.753906 180.714844 207.46875 184.40625 208.671875 187.644531 C 210.355469 192.242188 213.050781 195.96875 216.75 198.75 C 224.632812 197.554688 233.199219 196.515625 242.476562 195.644531 C 263.53125 190.171875 278.714844 181.878906 287.996094 170.710938 C 295.554688 161.640625 299.253906 150.535156 299.089844 137.421875 C 295.328125 136.15625 292.601562 132.628906 292.601562 128.417969 C 292.601562 123.171875 296.851562 118.929688 302.109375 118.929688 C 307.363281 118.929688 311.613281 123.171875 311.613281 128.417969 C 311.613281 132.109375 309.503906 135.316406 306.390625 136.871094 C 306.683594 151.925781 302.433594 164.75 293.609375 175.339844 C 284.167969 186.707031 269.503906 195.320312 249.679688 201.179688 C 252.078125 204.289062 254.125 207.625 255.8125 211.1875 C 257.109375 213.9375 258.148438 216.789062 258.992188 219.800781 C 263.371094 220.640625 266.679688 224.496094 266.679688 229.09375 C 266.679688 231.554688 265.738281 233.789062 264.214844 235.441406 Z M 182.648438 23.664062 C 182.746094 23.664062 182.8125 23.664062 182.910156 23.664062 Z M 182.648438 23.664062 " clip-rule="evenodd"/></clipPath><linearGradient x1="102.486174" gradientTransform="matrix(3.244374, 0, 0, 3.238192, 0.348753, 21.169339)" y1="-5.658648" x2="37.614297" gradientUnits="userSpaceOnUse" y2="116.364297" id="id3"><stop stop-opacity="1" stop-color="rgb(100%, 84.698486%, 94.099426%)" offset="0"/><stop stop-opacity="1" stop-color="rgb(100%, 84.635925%, 94.075012%)" offset="0.0625"/><stop stop-opacity="1" stop-color="rgb(100%, 84.375%, 93.972778%)" offset="0.0664062"/><stop stop-opacity="1" stop-color="rgb(100%, 84.176636%, 93.894958%)" offset="0.0703125"/><stop stop-opacity="1" stop-color="rgb(100%, 83.976746%, 93.817139%)" offset="0.0742188"/><stop stop-opacity="1" stop-color="rgb(100%, 83.778381%, 93.739319%)" offset="0.078125"/><stop stop-opacity="1" stop-color="rgb(100%, 83.578491%, 93.661499%)" offset="0.0820312"/><stop stop-opacity="1" stop-color="rgb(100%, 83.380127%, 93.583679%)" offset="0.0859375"/><stop stop-opacity="1" stop-color="rgb(100%, 83.180237%, 93.505859%)" offset="0.0898438"/><stop stop-opacity="1" stop-color="rgb(100%, 82.981873%, 93.42804%)" offset="0.09375"/><stop stop-opacity="1" stop-color="rgb(100%, 82.783508%, 93.35022%)" offset="0.0976562"/><stop stop-opacity="1" stop-color="rgb(100%, 82.585144%, 93.273926%)" offset="0.101562"/><stop stop-opacity="1" stop-color="rgb(100%, 82.385254%, 93.196106%)" offset="0.105469"/><stop stop-opacity="1" stop-color="rgb(100%, 82.18689%, 93.118286%)" offset="0.109375"/><stop stop-opacity="1" stop-color="rgb(100%, 81.987%, 93.040466%)" offset="0.113281"/><stop stop-opacity="1" stop-color="rgb(100%, 81.788635%, 92.962646%)" offset="0.117188"/><stop stop-opacity="1" stop-color="rgb(100%, 81.588745%, 92.884827%)" offset="0.121094"/><stop stop-opacity="1" stop-color="rgb(100%, 81.390381%, 92.807007%)" offset="0.125"/><stop stop-opacity="1" stop-color="rgb(100%, 81.190491%, 92.729187%)" offset="0.128906"/><stop stop-opacity="1" stop-color="rgb(100%, 80.992126%, 92.651367%)" offset="0.132812"/><stop stop-opacity="1" stop-color="rgb(100%, 80.792236%, 92.573547%)" offset="0.136719"/><stop stop-opacity="1" stop-color="rgb(100%, 80.593872%, 92.495728%)" offset="0.140625"/><stop stop-opacity="1" stop-color="rgb(100%, 80.393982%, 92.417908%)" offset="0.144531"/><stop stop-opacity="1" stop-color="rgb(100%, 80.195618%, 92.340088%)" offset="0.148438"/><stop stop-opacity="1" stop-color="rgb(100%, 79.995728%, 92.262268%)" offset="0.152344"/><stop stop-opacity="1" stop-color="rgb(100%, 79.797363%, 92.184448%)" offset="0.15625"/><stop stop-opacity="1" stop-color="rgb(100%, 79.597473%, 92.106628%)" offset="0.160156"/><stop stop-opacity="1" stop-color="rgb(100%, 79.399109%, 92.028809%)" offset="0.164062"/><stop stop-opacity="1" stop-color="rgb(100%, 79.200745%, 91.950989%)" offset="0.167969"/><stop stop-opacity="1" stop-color="rgb(100%, 79.00238%, 91.873169%)" offset="0.171875"/><stop stop-opacity="1" stop-color="rgb(100%, 78.80249%, 91.795349%)" offset="0.175781"/><stop stop-opacity="1" stop-color="rgb(100%, 78.604126%, 91.719055%)" offset="0.179687"/><stop stop-opacity="1" stop-color="rgb(100%, 78.404236%, 91.641235%)" offset="0.183594"/><stop stop-opacity="1" stop-color="rgb(100%, 78.205872%, 91.563416%)" offset="0.1875"/><stop stop-opacity="1" stop-color="rgb(100%, 78.005981%, 91.485596%)" offset="0.191406"/><stop stop-opacity="1" stop-color="rgb(100%, 77.807617%, 91.407776%)" offset="0.195312"/><stop stop-opacity="1" stop-color="rgb(100%, 77.607727%, 91.329956%)" offset="0.199219"/><stop stop-opacity="1" stop-color="rgb(100%, 77.409363%, 91.252136%)" offset="0.203125"/><stop stop-opacity="1" stop-color="rgb(100%, 77.209473%, 91.174316%)" offset="0.207031"/><stop stop-opacity="1" stop-color="rgb(100%, 77.011108%, 91.096497%)" offset="0.210938"/><stop stop-opacity="1" stop-color="rgb(100%, 76.811218%, 91.018677%)" offset="0.214844"/><stop stop-opacity="1" stop-color="rgb(100%, 76.612854%, 90.940857%)" offset="0.21875"/><stop stop-opacity="1" stop-color="rgb(100%, 76.412964%, 90.863037%)" offset="0.222656"/><stop stop-opacity="1" stop-color="rgb(100%, 76.2146%, 90.785217%)" offset="0.226562"/><stop stop-opacity="1" stop-color="rgb(100%, 76.014709%, 90.707397%)" offset="0.230469"/><stop stop-opacity="1" stop-color="rgb(100%, 75.816345%, 90.629578%)" offset="0.234375"/><stop stop-opacity="1" stop-color="rgb(100%, 75.617981%, 90.551758%)" offset="0.238281"/><stop stop-opacity="1" stop-color="rgb(100%, 75.419617%, 90.473938%)" offset="0.242188"/><stop stop-opacity="1" stop-color="rgb(100%, 75.219727%, 90.396118%)" offset="0.246094"/><stop stop-opacity="1" stop-color="rgb(100%, 75.021362%, 90.318298%)" offset="0.25"/><stop stop-opacity="1" stop-color="rgb(100%, 74.821472%, 90.240479%)" offset="0.253906"/><stop stop-opacity="1" stop-color="rgb(100%, 74.623108%, 90.164185%)" offset="0.257812"/><stop stop-opacity="1" stop-color="rgb(100%, 74.423218%, 90.086365%)" offset="0.261719"/><stop stop-opacity="1" stop-color="rgb(100%, 74.224854%, 90.008545%)" offset="0.265625"/><stop stop-opacity="1" stop-color="rgb(100%, 74.024963%, 89.930725%)" offset="0.269531"/><stop stop-opacity="1" stop-color="rgb(100%, 73.826599%, 89.852905%)" offset="0.273438"/><stop stop-opacity="1" stop-color="rgb(100%, 73.626709%, 89.775085%)" offset="0.277344"/><stop stop-opacity="1" stop-color="rgb(100%, 73.428345%, 89.697266%)" offset="0.28125"/><stop stop-opacity="1" stop-color="rgb(100%, 73.228455%, 89.619446%)" offset="0.285156"/><stop stop-opacity="1" stop-color="rgb(100%, 73.03009%, 89.541626%)" offset="0.289062"/><stop stop-opacity="1" stop-color="rgb(100%, 72.8302%, 89.463806%)" offset="0.292969"/><stop stop-opacity="1" stop-color="rgb(100%, 72.631836%, 89.385986%)" offset="0.296875"/><stop stop-opacity="1" stop-color="rgb(100%, 72.431946%, 89.308167%)" offset="0.300781"/><stop stop-opacity="1" stop-color="rgb(100%, 72.233582%, 89.230347%)" offset="0.304688"/><stop stop-opacity="1" stop-color="rgb(100%, 72.035217%, 89.152527%)" offset="0.308594"/><stop stop-opacity="1" stop-color="rgb(100%, 71.836853%, 89.074707%)" offset="0.3125"/><stop stop-opacity="1" stop-color="rgb(100%, 71.636963%, 88.996887%)" offset="0.316406"/><stop stop-opacity="1" stop-color="rgb(100%, 71.438599%, 88.919067%)" offset="0.320312"/><stop stop-opacity="1" stop-color="rgb(100%, 71.238708%, 88.841248%)" offset="0.324219"/><stop stop-opacity="1" stop-color="rgb(100%, 71.040344%, 88.764954%)" offset="0.328125"/><stop stop-opacity="1" stop-color="rgb(100%, 70.840454%, 88.687134%)" offset="0.332031"/><stop stop-opacity="1" stop-color="rgb(100%, 70.64209%, 88.609314%)" offset="0.335938"/><stop stop-opacity="1" stop-color="rgb(100%, 70.4422%, 88.531494%)" offset="0.339844"/><stop stop-opacity="1" stop-color="rgb(100%, 70.243835%, 88.453674%)" offset="0.34375"/><stop stop-opacity="1" stop-color="rgb(100%, 70.043945%, 88.375854%)" offset="0.347656"/><stop stop-opacity="1" stop-color="rgb(100%, 69.845581%, 88.298035%)" offset="0.351562"/><stop stop-opacity="1" stop-color="rgb(100%, 69.645691%, 88.220215%)" offset="0.355469"/><stop stop-opacity="1" stop-color="rgb(100%, 69.447327%, 88.142395%)" offset="0.359375"/><stop stop-opacity="1" stop-color="rgb(100%, 69.247437%, 88.064575%)" offset="0.363281"/><stop stop-opacity="1" stop-color="rgb(100%, 69.049072%, 87.986755%)" offset="0.367187"/><stop stop-opacity="1" stop-color="rgb(100%, 68.849182%, 87.908936%)" offset="0.371094"/><stop stop-opacity="1" stop-color="rgb(100%, 68.650818%, 87.831116%)" offset="0.375"/><stop stop-opacity="1" stop-color="rgb(100%, 68.452454%, 87.753296%)" offset="0.378906"/><stop stop-opacity="1" stop-color="rgb(100%, 68.254089%, 87.675476%)" offset="0.382812"/><stop stop-opacity="1" stop-color="rgb(100%, 68.054199%, 87.597656%)" offset="0.386719"/><stop stop-opacity="1" stop-color="rgb(100%, 67.855835%, 87.519836%)" offset="0.390625"/><stop stop-opacity="1" stop-color="rgb(100%, 67.655945%, 87.442017%)" offset="0.394531"/><stop stop-opacity="1" stop-color="rgb(100%, 67.457581%, 87.364197%)" offset="0.398437"/><stop stop-opacity="1" stop-color="rgb(100%, 67.25769%, 87.286377%)" offset="0.402344"/><stop stop-opacity="1" stop-color="rgb(100%, 67.059326%, 87.210083%)" offset="0.40625"/><stop stop-opacity="1" stop-color="rgb(100%, 66.859436%, 87.132263%)" offset="0.410156"/><stop stop-opacity="1" stop-color="rgb(100%, 66.661072%, 87.054443%)" offset="0.414063"/><stop stop-opacity="1" stop-color="rgb(100%, 66.461182%, 86.976624%)" offset="0.417969"/><stop stop-opacity="1" stop-color="rgb(100%, 66.262817%, 86.898804%)" offset="0.421875"/><stop stop-opacity="1" stop-color="rgb(100%, 66.062927%, 86.820984%)" offset="0.425781"/><stop stop-opacity="1" stop-color="rgb(100%, 65.864563%, 86.743164%)" offset="0.429688"/><stop stop-opacity="1" stop-color="rgb(100%, 65.664673%, 86.665344%)" offset="0.433594"/><stop stop-opacity="1" stop-color="rgb(100%, 65.466309%, 86.587524%)" offset="0.4375"/><stop stop-opacity="1" stop-color="rgb(100%, 65.266418%, 86.509705%)" offset="0.441406"/><stop stop-opacity="1" stop-color="rgb(100%, 65.068054%, 86.431885%)" offset="0.445313"/><stop stop-opacity="1" stop-color="rgb(100%, 64.86969%, 86.354065%)" offset="0.449219"/><stop stop-opacity="1" stop-color="rgb(100%, 64.671326%, 86.276245%)" offset="0.453125"/><stop stop-opacity="1" stop-color="rgb(100%, 64.471436%, 86.198425%)" offset="0.457031"/><stop stop-opacity="1" stop-color="rgb(100%, 64.273071%, 86.120605%)" offset="0.460938"/><stop stop-opacity="1" stop-color="rgb(100%, 64.073181%, 86.042786%)" offset="0.464844"/><stop stop-opacity="1" stop-color="rgb(100%, 63.874817%, 85.964966%)" offset="0.46875"/><stop stop-opacity="1" stop-color="rgb(100%, 63.674927%, 85.887146%)" offset="0.472656"/><stop stop-opacity="1" stop-color="rgb(100%, 63.476562%, 85.809326%)" offset="0.476562"/><stop stop-opacity="1" stop-color="rgb(100%, 63.276672%, 85.731506%)" offset="0.480469"/><stop stop-opacity="1" stop-color="rgb(100%, 63.078308%, 85.655212%)" offset="0.484375"/><stop stop-opacity="1" stop-color="rgb(100%, 62.878418%, 85.577393%)" offset="0.488281"/><stop stop-opacity="1" stop-color="rgb(100%, 62.680054%, 85.499573%)" offset="0.492188"/><stop stop-opacity="1" stop-color="rgb(100%, 62.480164%, 85.421753%)" offset="0.496094"/><stop stop-opacity="1" stop-color="rgb(100%, 62.281799%, 85.343933%)" offset="0.5"/><stop stop-opacity="1" stop-color="rgb(100%, 62.081909%, 85.266113%)" offset="0.503906"/><stop stop-opacity="1" stop-color="rgb(100%, 61.883545%, 85.188293%)" offset="0.507812"/><stop stop-opacity="1" stop-color="rgb(100%, 61.685181%, 85.110474%)" offset="0.511719"/><stop stop-opacity="1" stop-color="rgb(100%, 61.486816%, 85.032654%)" offset="0.515625"/><stop stop-opacity="1" stop-color="rgb(100%, 61.286926%, 84.954834%)" offset="0.519531"/><stop stop-opacity="1" stop-color="rgb(100%, 61.088562%, 84.877014%)" offset="0.523438"/><stop stop-opacity="1" stop-color="rgb(100%, 60.888672%, 84.799194%)" offset="0.527344"/><stop stop-opacity="1" stop-color="rgb(100%, 60.690308%, 84.721375%)" offset="0.53125"/><stop stop-opacity="1" stop-color="rgb(100%, 60.490417%, 84.643555%)" offset="0.535156"/><stop stop-opacity="1" stop-color="rgb(100%, 60.292053%, 84.565735%)" offset="0.539062"/><stop stop-opacity="1" stop-color="rgb(100%, 60.092163%, 84.487915%)" offset="0.542969"/><stop stop-opacity="1" stop-color="rgb(100%, 59.893799%, 84.410095%)" offset="0.546875"/><stop stop-opacity="1" stop-color="rgb(100%, 59.693909%, 84.332275%)" offset="0.550781"/><stop stop-opacity="1" stop-color="rgb(100%, 59.495544%, 84.254456%)" offset="0.554687"/><stop stop-opacity="1" stop-color="rgb(100%, 59.295654%, 84.176636%)" offset="0.558594"/><stop stop-opacity="1" stop-color="rgb(100%, 59.09729%, 84.100342%)" offset="0.5625"/><stop stop-opacity="1" stop-color="rgb(100%, 58.8974%, 84.022522%)" offset="0.566406"/><stop stop-opacity="1" stop-color="rgb(100%, 58.699036%, 83.944702%)" offset="0.570312"/><stop stop-opacity="1" stop-color="rgb(100%, 58.499146%, 83.866882%)" offset="0.574219"/><stop stop-opacity="1" stop-color="rgb(100%, 58.300781%, 83.789062%)" offset="0.578125"/><stop stop-opacity="1" stop-color="rgb(100%, 58.102417%, 83.711243%)" offset="0.582031"/><stop stop-opacity="1" stop-color="rgb(100%, 57.904053%, 83.633423%)" offset="0.585938"/><stop stop-opacity="1" stop-color="rgb(100%, 57.704163%, 83.555603%)" offset="0.589844"/><stop stop-opacity="1" stop-color="rgb(100%, 57.505798%, 83.477783%)" offset="0.59375"/><stop stop-opacity="1" stop-color="rgb(100%, 57.305908%, 83.399963%)" offset="0.597656"/><stop stop-opacity="1" stop-color="rgb(100%, 57.107544%, 83.322144%)" offset="0.601562"/><stop stop-opacity="1" stop-color="rgb(100%, 56.907654%, 83.244324%)" offset="0.605469"/><stop stop-opacity="1" stop-color="rgb(100%, 56.70929%, 83.166504%)" offset="0.609375"/><stop stop-opacity="1" stop-color="rgb(100%, 56.509399%, 83.088684%)" offset="0.613281"/><stop stop-opacity="1" stop-color="rgb(100%, 56.311035%, 83.010864%)" offset="0.617188"/><stop stop-opacity="1" stop-color="rgb(100%, 56.111145%, 82.933044%)" offset="0.621094"/><stop stop-opacity="1" stop-color="rgb(100%, 55.912781%, 82.855225%)" offset="0.625"/><stop stop-opacity="1" stop-color="rgb(100%, 55.712891%, 82.777405%)" offset="0.628906"/><stop stop-opacity="1" stop-color="rgb(100%, 55.514526%, 82.699585%)" offset="0.632813"/><stop stop-opacity="1" stop-color="rgb(100%, 55.314636%, 82.621765%)" offset="0.636719"/><stop stop-opacity="1" stop-color="rgb(100%, 55.116272%, 82.545471%)" offset="0.640625"/><stop stop-opacity="1" stop-color="rgb(100%, 54.916382%, 82.467651%)" offset="0.644531"/><stop stop-opacity="1" stop-color="rgb(100%, 54.718018%, 82.389832%)" offset="0.648438"/><stop stop-opacity="1" stop-color="rgb(100%, 54.519653%, 82.312012%)" offset="0.652344"/><stop stop-opacity="1" stop-color="rgb(100%, 54.321289%, 82.234192%)" offset="0.65625"/><stop stop-opacity="1" stop-color="rgb(100%, 54.121399%, 82.156372%)" offset="0.660156"/><stop stop-opacity="1" stop-color="rgb(100%, 53.923035%, 82.078552%)" offset="0.664062"/><stop stop-opacity="1" stop-color="rgb(100%, 53.723145%, 82.000732%)" offset="0.667969"/><stop stop-opacity="1" stop-color="rgb(100%, 53.52478%, 81.922913%)" offset="0.671875"/><stop stop-opacity="1" stop-color="rgb(100%, 53.32489%, 81.845093%)" offset="0.675781"/><stop stop-opacity="1" stop-color="rgb(100%, 53.126526%, 81.767273%)" offset="0.679688"/><stop stop-opacity="1" stop-color="rgb(100%, 52.926636%, 81.689453%)" offset="0.683594"/><stop stop-opacity="1" stop-color="rgb(100%, 52.728271%, 81.611633%)" offset="0.6875"/><stop stop-opacity="1" stop-color="rgb(100%, 52.528381%, 81.533813%)" offset="0.691406"/><stop stop-opacity="1" stop-color="rgb(100%, 52.330017%, 81.455994%)" offset="0.695312"/><stop stop-opacity="1" stop-color="rgb(100%, 52.130127%, 81.378174%)" offset="0.699219"/><stop stop-opacity="1" stop-color="rgb(100%, 51.931763%, 81.300354%)" offset="0.703125"/><stop stop-opacity="1" stop-color="rgb(100%, 51.731873%, 81.222534%)" offset="0.707031"/><stop stop-opacity="1" stop-color="rgb(100%, 51.533508%, 81.14624%)" offset="0.710937"/><stop stop-opacity="1" stop-color="rgb(100%, 51.333618%, 81.06842%)" offset="0.714844"/><stop stop-opacity="1" stop-color="rgb(100%, 51.135254%, 80.990601%)" offset="0.71875"/><stop stop-opacity="1" stop-color="rgb(100%, 50.93689%, 80.912781%)" offset="0.722656"/><stop stop-opacity="1" stop-color="rgb(100%, 50.738525%, 80.834961%)" offset="0.726562"/><stop stop-opacity="1" stop-color="rgb(100%, 50.538635%, 80.757141%)" offset="0.730469"/><stop stop-opacity="1" stop-color="rgb(100%, 50.340271%, 80.679321%)" offset="0.734375"/><stop stop-opacity="1" stop-color="rgb(100%, 50.140381%, 80.601501%)" offset="0.738281"/><stop stop-opacity="1" stop-color="rgb(100%, 49.942017%, 80.523682%)" offset="0.742187"/><stop stop-opacity="1" stop-color="rgb(100%, 49.742126%, 80.445862%)" offset="0.746094"/><stop stop-opacity="1" stop-color="rgb(100%, 49.543762%, 80.368042%)" offset="0.75"/><stop stop-opacity="1" stop-color="rgb(100%, 49.343872%, 80.290222%)" offset="0.753906"/><stop stop-opacity="1" stop-color="rgb(100%, 49.145508%, 80.212402%)" offset="0.757812"/><stop stop-opacity="1" stop-color="rgb(100%, 48.945618%, 80.134583%)" offset="0.761719"/><stop stop-opacity="1" stop-color="rgb(100%, 48.747253%, 80.056763%)" offset="0.765625"/><stop stop-opacity="1" stop-color="rgb(100%, 48.672485%, 80.027771%)" offset="0.78125"/><stop stop-opacity="1" stop-color="rgb(100%, 48.599243%, 79.998779%)" offset="0.8125"/><stop stop-opacity="1" stop-color="rgb(100%, 48.599243%, 79.998779%)" offset="0.875"/><stop stop-opacity="1" stop-color="rgb(100%, 48.599243%, 79.998779%)" offset="1"/></linearGradient><clipPath id="id4"><path d="M 65.347656 122 L 184 122 L 184 227 L 65.347656 227 Z M 65.347656 122 " clip-rule="nonzero"/></clipPath><clipPath id="id5"><path d="M 183 67.761719 L 302.332031 67.761719 L 302.332031 173 L 183 173 Z M 183 67.761719 " clip-rule="nonzero"/></clipPath></defs><g clip-path="url(#id1)"><g clip-path="url(#id2)"><path fill="url(#id3)" d="M 0 21.167969 L 0 333.039062 L 367.386719 333.039062 L 367.386719 21.167969 Z M 0 21.167969 " fill-rule="nonzero"/></g></g><g clip-path="url(#id4)"><path fill="#ffffff" d="M 145.148438 196.5 L 145.148438 210.914062 L 79.820312 180.589844 L 79.820312 168.894531 L 145.148438 138.570312 L 145.148438 152.984375 L 95.742188 174.605469 L 95.742188 174.878906 Z M 183.941406 122.550781 L 74.699219 122.550781 C 69.539062 122.550781 65.359375 126.730469 65.359375 131.886719 L 65.359375 217.601562 C 65.359375 222.753906 69.539062 226.929688 74.699219 226.929688 L 153.617188 226.929688 L 183.941406 122.550781 " fill-opacity="1" fill-rule="nonzero"/></g><g clip-path="url(#id5)"><path fill="#000000" d="M 287.886719 126.261719 L 222.5625 156.175781 L 222.5625 141.761719 L 273.054688 120.140625 L 273.054688 119.867188 L 222.5625 98.246094 L 222.5625 83.832031 L 287.886719 113.75 Z M 214.269531 67.816406 L 183.941406 172.195312 L 293.011719 172.195312 C 298.167969 172.195312 302.347656 168.015625 302.347656 162.859375 L 302.347656 77.144531 C 302.347656 71.992188 298.167969 67.816406 293.011719 67.816406 L 214.269531 67.816406 " fill-opacity="1" fill-rule="nonzero"/></g><g fill="#060a1e" fill-opacity="1"><g transform="translate(79.158554, 286.611417)"><g><path d="M 1.851562 0.292969 C 1.785156 0.5 1.832031 0.589844 2.039062 0.65625 L 2.863281 0.921875 C 3.066406 0.988281 3.140625 0.933594 3.207031 0.730469 L 6.890625 -10.714844 C 6.957031 -10.921875 6.929688 -11.007812 6.722656 -11.074219 L 5.898438 -11.335938 C 5.695312 -11.402344 5.605469 -11.355469 5.539062 -11.152344 Z M 1.851562 0.292969 "/></g></g></g><g fill="#060a1e" fill-opacity="1"><g transform="translate(85.954764, 288.830288)"><g><path d="M 7.808594 -5.132812 C 5.960938 -5.882812 4.441406 -6.679688 4.820312 -8.105469 C 5.050781 -8.976562 5.988281 -10.253906 8.371094 -9.695312 L 8.699219 -10.929688 C 5.421875 -11.765625 3.816406 -9.730469 3.46875 -8.425781 C 2.855469 -6.113281 4.910156 -4.953125 6.738281 -4.1875 C 8.933594 -3.265625 10.113281 -2.449219 9.730469 -1.007812 C 9.277344 0.699219 7.640625 0.894531 5.945312 0.480469 L 5.621094 1.699219 C 8.671875 2.546875 10.597656 1.125 11.082031 -0.703125 C 11.703125 -3.035156 9.976562 -4.238281 7.808594 -5.132812 Z M 1.347656 -0.871094 C 2.339844 0.304688 3.6875 1.128906 5.289062 1.613281 L 5.613281 0.394531 C 4.441406 0.0429688 3.140625 -0.746094 2.289062 -1.738281 C 2.214844 -1.8125 2.167969 -1.84375 2.113281 -1.859375 C 2.027344 -1.882812 1.960938 -1.84375 1.859375 -1.742188 L 1.382812 -1.273438 C 1.226562 -1.109375 1.203125 -1.019531 1.347656 -0.871094 Z M 8.707031 -9.625 C 9.957031 -9.289062 10.972656 -8.554688 11.84375 -7.558594 C 11.902344 -7.488281 11.949219 -7.457031 11.984375 -7.449219 C 12.070312 -7.425781 12.15625 -7.476562 12.261719 -7.578125 L 12.734375 -8.03125 C 12.851562 -8.1875 12.914062 -8.28125 12.75 -8.4375 C 11.730469 -9.507812 10.703125 -10.339844 9.03125 -10.839844 Z M 8.707031 -9.625 "/></g></g></g><g fill="#060a1e" fill-opacity="1"><g transform="translate(99.051969, 292.175801)"><g><path d="M 1.875 0.101562 C 1.828125 0.3125 1.882812 0.398438 2.09375 0.445312 L 2.941406 0.621094 C 3.152344 0.667969 3.21875 0.609375 3.265625 0.394531 L 5.753906 -11.367188 C 5.796875 -11.578125 5.761719 -11.660156 5.550781 -11.703125 L 4.703125 -11.882812 C 4.492188 -11.929688 4.40625 -11.871094 4.363281 -11.660156 Z M 1.875 0.101562 "/></g></g></g><g fill="#060a1e" fill-opacity="1"><g transform="translate(106.040199, 293.684858)"><g><path d="M 7.242188 -5.90625 C 5.324219 -6.464844 3.730469 -7.101562 3.960938 -8.558594 C 4.101562 -9.445312 4.902344 -10.816406 7.332031 -10.503906 L 7.53125 -11.765625 C 4.183594 -12.257812 2.796875 -10.074219 2.585938 -8.738281 C 2.210938 -6.375 4.378906 -5.429688 6.273438 -4.855469 C 8.550781 -4.167969 9.808594 -3.476562 9.574219 -2 C 9.300781 -0.257812 7.691406 0.105469 5.960938 -0.132812 L 5.765625 1.113281 C 8.886719 1.644531 10.65625 0.0273438 10.953125 -1.835938 C 11.328125 -4.21875 9.488281 -5.242188 7.242188 -5.90625 Z M 1.253906 -1.003906 C 2.359375 0.0625 3.78125 0.746094 5.425781 1.058594 L 5.625 -0.183594 C 4.421875 -0.410156 3.046875 -1.066406 2.097656 -1.964844 C 2.015625 -2.03125 1.964844 -2.058594 1.914062 -2.066406 C 1.824219 -2.082031 1.761719 -2.035156 1.671875 -1.921875 L 1.242188 -1.40625 C 1.105469 -1.226562 1.089844 -1.140625 1.253906 -1.003906 Z M 7.671875 -10.46875 C 8.953125 -10.265625 10.035156 -9.636719 11.003906 -8.734375 C 11.070312 -8.671875 11.117188 -8.644531 11.15625 -8.640625 C 11.242188 -8.625 11.324219 -8.6875 11.417969 -8.796875 L 11.839844 -9.296875 C 11.941406 -9.464844 11.992188 -9.5625 11.816406 -9.703125 C 10.691406 -10.664062 9.585938 -11.386719 7.867188 -11.710938 Z M 7.671875 -10.46875 "/></g></g></g><g fill="#060a1e" fill-opacity="1"><g transform="translate(119.406072, 295.662624)"><g/></g></g><g fill="#060a1e" fill-opacity="1"><g transform="translate(125.928454, 296.395907)"><g><path d="M 10.019531 -12.039062 L 0.695312 -0.484375 C 0.617188 -0.378906 0.578125 -0.363281 0.574219 -0.238281 L 0.566406 -0.113281 C 0.558594 0.015625 0.609375 0.0351562 0.699219 0.0390625 L 1.921875 0.113281 L 11.246094 -11.429688 C 11.34375 -11.566406 11.363281 -11.585938 11.371094 -11.691406 L 11.375 -11.816406 C 11.382812 -11.925781 11.347656 -11.964844 11.222656 -11.972656 Z M 3.34375 -1.050781 L 2.371094 0.136719 L 10.136719 0.585938 C 10.351562 0.601562 10.425781 0.53125 10.4375 0.316406 L 10.476562 -0.347656 C 10.492188 -0.582031 10.40625 -0.640625 10.207031 -0.652344 Z M 1.769531 -11.5625 C 1.757812 -11.347656 1.824219 -11.269531 2.039062 -11.257812 L 8.636719 -10.875 L 9.589844 -12.066406 L 2.113281 -12.5 C 1.898438 -12.511719 1.820312 -12.445312 1.808594 -12.226562 Z M 1.769531 -11.5625 "/></g></g></g><g fill="#060a1e" fill-opacity="1"><g transform="translate(139.185906, 297.119018)"><g><path d="M 1.511719 -0.0195312 C 1.710938 -0.0195312 1.78125 -0.09375 1.886719 -0.3125 L 6.296875 -10.519531 L 6.316406 -10.519531 L 8.867188 -5.023438 L 10.269531 -5.039062 L 6.523438 -12.734375 C 6.449219 -12.878906 6.390625 -12.984375 6.300781 -12.984375 L 6.25 -12.984375 C 6.140625 -12.984375 6.105469 -12.875 6.019531 -12.730469 L 0.300781 -0.292969 C 0.234375 -0.128906 0.304688 -0.00390625 0.46875 -0.00390625 Z M 4.136719 -4.625 L 3.578125 -3.390625 L 9.535156 -3.464844 L 10.976562 -0.421875 C 11.085938 -0.207031 11.160156 -0.136719 11.339844 -0.140625 L 12.382812 -0.152344 C 12.5625 -0.15625 12.632812 -0.28125 12.558594 -0.441406 L 10.453125 -4.699219 Z M 4.136719 -4.625 "/></g></g></g><g fill="#060a1e" fill-opacity="1"><g transform="translate(154.096362, 296.833029)"><g><path d="M 5.871094 -5.433594 C 8.0625 -5.613281 10.203125 -6.785156 9.964844 -9.691406 C 9.722656 -12.597656 7.429688 -13.257812 5.242188 -13.074219 L 2.496094 -12.847656 L 2.597656 -11.628906 L 5.25 -11.847656 C 7.746094 -12.054688 8.480469 -10.832031 8.582031 -9.578125 C 8.695312 -8.214844 8.175781 -6.851562 5.683594 -6.648438 L 3.027344 -6.425781 L 3.128906 -5.207031 Z M 2.90625 -0.238281 C 3.140625 -0.257812 3.1875 -0.335938 3.167969 -0.550781 L 2.15625 -12.820312 L 1.023438 -12.726562 C 0.808594 -12.710938 0.742188 -12.667969 0.761719 -12.417969 L 1.753906 -0.433594 C 1.769531 -0.21875 1.828125 -0.152344 2.0625 -0.171875 Z M 2.90625 -0.238281 "/></g></g></g><g fill="#060a1e" fill-opacity="1"><g transform="translate(167.306549, 295.696575)"><g><path d="M 1.496094 -0.230469 C 1.691406 -0.261719 1.75 -0.34375 1.824219 -0.570312 L 4.765625 -11.296875 L 4.78125 -11.296875 L 8.078125 -6.214844 L 9.464844 -6.425781 L 4.675781 -13.523438 C 4.582031 -13.652344 4.515625 -13.753906 4.425781 -13.738281 L 4.371094 -13.730469 C 4.265625 -13.714844 4.246094 -13.601562 4.179688 -13.445312 L 0.257812 -0.332031 C 0.210938 -0.160156 0.300781 -0.046875 0.460938 -0.0703125 Z M 3.449219 -5.15625 L 3.066406 -3.859375 L 8.957031 -4.765625 L 10.808594 -1.953125 C 10.949219 -1.757812 11.03125 -1.695312 11.207031 -1.722656 L 12.238281 -1.882812 C 12.417969 -1.910156 12.46875 -2.046875 12.375 -2.195312 L 9.695312 -6.117188 Z M 3.449219 -5.15625 "/></g></g></g><g fill="#060a1e" fill-opacity="1"><g transform="translate(182.027891, 293.326496)"><g><path d="M 2.160156 -12.078125 L 4.589844 -1.332031 C 4.636719 -1.121094 4.707031 -1.0625 4.933594 -1.113281 L 5.777344 -1.304688 C 5.988281 -1.351562 6.023438 -1.433594 5.976562 -1.644531 L 3.261719 -13.65625 L -2.320312 -12.394531 C -2.53125 -12.34375 -2.585938 -12.257812 -2.539062 -12.050781 L -2.378906 -11.347656 C -2.332031 -11.136719 -2.261719 -11.078125 -2.035156 -11.128906 Z M 7.761719 -13.34375 C 7.972656 -13.390625 8.007812 -13.472656 7.960938 -13.683594 L 7.804688 -14.386719 C 7.753906 -14.597656 7.703125 -14.660156 7.476562 -14.605469 L 3.597656 -13.730469 L 3.882812 -12.464844 Z M 7.761719 -13.34375 "/></g></g></g><g fill="#060a1e" fill-opacity="1"><g transform="translate(194.756563, 290.40834)"><g><path d="M 1.449219 -0.433594 C 1.636719 -0.492188 1.6875 -0.582031 1.726562 -0.820312 L 3.148438 -11.847656 L 3.167969 -11.851562 L 7.136719 -7.273438 L 8.480469 -7.679688 L 2.753906 -14.039062 C 2.644531 -14.15625 2.5625 -14.246094 2.476562 -14.21875 L 2.421875 -14.203125 C 2.320312 -14.171875 2.316406 -14.058594 2.273438 -13.894531 L 0.210938 -0.363281 C 0.1875 -0.1875 0.292969 -0.0898438 0.449219 -0.132812 Z M 2.699219 -5.585938 L 2.5 -4.246094 L 8.207031 -5.960938 L 10.433594 -3.433594 C 10.597656 -3.257812 10.6875 -3.210938 10.859375 -3.261719 L 11.859375 -3.5625 C 12.03125 -3.613281 12.066406 -3.757812 11.949219 -3.890625 L 8.75 -7.402344 Z M 2.699219 -5.585938 "/></g></g></g><path stroke-linecap="butt" transform="matrix(0.713925, 0.229807, -0.229807, 0.713925, 82.959184, 271.537425)" fill="none" stroke-linejoin="miter" d="M 2.475156 19.614309 C 2.470497 19.905799 2.566696 20.000678 2.851633 20.001975 L 4.006251 20.002375 C 4.296145 20.002076 4.364639 19.908898 4.367702 19.61245 L 4.36698 3.581145 C 4.368277 3.296209 4.293505 3.199904 4.008569 3.198607 L 2.855546 3.203165 C 2.565652 3.203464 2.474135 3.29311 2.474434 3.583004 Z M 2.475156 19.614309 " stroke="#000000" stroke-width="0.900019" stroke-opacity="1" stroke-miterlimit="4"/><path stroke-linecap="butt" transform="matrix(0.7248, 0.19278, -0.19278, 0.7248, 89.014854, 273.538782)" fill="none" stroke-linejoin="miter" d="M 8.303814 10.710191 C 5.666005 10.377019 3.434932 9.870993 3.434521 7.903966 C 3.434285 6.707578 4.203176 4.735343 7.466292 4.643506 L 7.464708 2.935482 C 2.950212 2.982899 1.584033 6.154156 1.583209 7.95444 C 1.580483 11.145698 4.637033 11.938772 7.248658 12.295076 C 10.393339 12.730566 12.193206 13.37823 12.193938 15.366729 C 12.195105 17.721593 10.153074 18.534197 7.821665 18.58302 L 7.821588 20.264537 C 12.048167 20.309868 14.040958 17.812695 14.039895 15.296122 C 14.040961 12.078358 11.402552 11.114785 8.303814 10.710191 Z M 1.439252 18.415857 C 3.11565 19.592187 5.139662 20.191013 7.362963 20.262564 L 7.36304 18.581047 C 5.73389 18.534705 3.792394 17.962436 2.35005 16.977155 C 2.234014 16.905619 2.162904 16.881418 2.087082 16.880027 C 1.969655 16.884313 1.896137 16.952372 1.800078 17.118046 L 1.342966 17.891746 C 1.202893 18.155358 1.200807 18.26909 1.439252 18.415857 Z M 7.921918 4.61394 C 9.651413 4.612034 11.208071 5.216598 12.671887 6.201558 C 12.766452 6.273415 12.837562 6.297617 12.890573 6.294296 C 13.009338 6.295044 13.102668 6.200158 13.203761 6.033145 L 13.657499 5.287289 C 13.749916 5.047131 13.798319 4.904911 13.533369 4.759805 C 11.85285 3.730085 10.248962 3.008737 7.923333 2.937455 Z M 7.921918 4.61394 " stroke="#000000" stroke-width="0.900019" stroke-opacity="1" stroke-miterlimit="4"/><path stroke-linecap="butt" transform="matrix(0.733757, 0.155243, -0.155243, 0.733757, 101.361312, 276.705157)" fill="none" stroke-linejoin="miter" d="M 2.470174 19.613892 C 2.473418 19.906005 2.567395 19.997919 2.855491 20.000849 L 4.005718 20.002379 C 4.292736 20.000214 4.363189 19.905454 4.365041 19.612263 L 4.364815 3.582869 C 4.367745 3.294773 4.295229 3.203643 4.007133 3.200713 L 2.85181 3.20026 C 2.564792 3.202425 2.472879 3.296402 2.475044 3.58342 Z M 2.470174 19.613892 " stroke="#000000" stroke-width="0.900019" stroke-opacity="1" stroke-miterlimit="4"/><path stroke-linecap="butt" transform="matrix(0.740771, 0.117294, -0.117294, 0.740771, 107.590574, 278.073937)" fill="none" stroke-linejoin="miter" d="M 8.30281 10.713923 C 5.665651 10.377422 3.434028 9.871244 3.433713 7.904383 C 3.434005 6.707316 4.20267 4.734704 7.46241 4.640412 L 7.466813 2.936465 C 2.955562 2.986354 1.580356 6.157109 1.580326 7.955282 C 1.584422 11.144932 4.636597 11.937767 7.25048 12.293773 C 10.393749 12.729425 12.19437 13.377674 12.192798 15.365927 C 12.191658 17.723237 10.153126 18.536429 7.824538 18.583473 L 7.822021 20.266029 C 12.047381 20.308867 14.041317 17.815305 14.037783 15.295266 C 14.039903 12.078265 11.404368 11.119267 8.30281 10.713923 Z M 1.438935 18.418646 C 3.116313 19.587365 5.137322 20.195444 7.363068 20.264875 L 7.365585 18.582319 C 5.733914 18.534832 3.792255 17.961648 2.349714 16.977221 C 2.232982 16.906059 2.160405 16.880639 2.086757 16.881754 C 1.97114 16.884241 1.897792 16.95386 1.797137 17.117448 L 1.339604 17.891233 C 1.202169 18.155563 1.199512 18.271994 1.438935 18.418646 Z M 7.922434 4.61503 C 9.652103 4.615361 11.208201 5.217956 12.671318 6.199125 C 12.767474 6.273545 12.839236 6.293821 12.892308 6.295964 C 13.007925 6.293477 13.103736 6.199208 13.203576 6.030476 L 13.660851 5.288371 C 13.754432 5.046805 13.800944 4.90761 13.534985 4.759886 C 11.853064 3.72899 10.246552 3.007821 7.920622 2.938433 Z M 7.922434 4.61503 " stroke="#000000" stroke-width="0.900019" stroke-opacity="1" stroke-miterlimit="4"/><path stroke-linecap="butt" transform="matrix(0.748744, 0.0433783, -0.0433783, 0.748744, 126.00051, 280.62549)" fill="none" stroke-linejoin="miter" d="M 12.408512 3.203696 L 0.888095 19.303212 C 0.792236 19.449627 0.746645 19.473136 0.745885 19.640126 L 0.745126 19.807117 C 0.744366 19.974107 0.813768 20.001388 0.93886 19.999358 L 2.566562 19.998965 L 14.088184 3.920247 C 14.207631 3.73073 14.232123 3.703225 14.234088 3.557034 L 14.229949 3.395544 C 14.231913 3.249353 14.187304 3.199767 14.015114 3.199308 Z M 4.364253 18.34013 L 3.171826 20.000419 L 13.532903 20.000115 C 13.819786 19.999145 13.923857 19.904426 13.922586 19.612344 L 13.923673 18.730597 C 13.921198 18.417716 13.796787 18.341451 13.535902 18.340914 Z M 1.463677 4.474265 C 1.464646 4.761147 1.558763 4.854819 1.845646 4.85385 L 10.657316 4.85462 L 11.829246 3.200736 L 1.843746 3.200149 C 1.556864 3.201119 1.463192 3.295236 1.464161 3.582118 Z M 1.463677 4.474265 " stroke="#000000" stroke-width="0.900019" stroke-opacity="1" stroke-miterlimit="4"/><path stroke-linecap="butt" transform="matrix(0.749943, -0.0092367, 0.0092367, 0.749943, 138.205659, 281.324631)" fill="none" stroke-linejoin="miter" d="M 2.016091 19.999756 C 2.28176 19.997819 2.376657 19.905231 2.520864 19.615318 L 8.568234 6.079393 L 8.589066 6.079649 L 11.904808 13.449169 L 13.774714 13.451365 L 8.906664 3.130212 C 8.804879 2.936235 8.733764 2.789515 8.613917 2.793248 L 8.541006 2.79235 C 8.400391 2.790618 8.351724 2.935863 8.234712 3.132353 L 0.411328 19.61538 C 0.309747 19.827687 0.411789 20.000831 0.620171 19.998189 Z M 5.591387 13.907909 L 4.821303 15.533965 L 12.769836 15.532897 L 14.641597 19.613551 C 14.783828 19.906991 14.881624 20.001953 15.116045 19.999631 L 16.511965 20.001198 C 16.751594 19.998941 16.847454 19.828233 16.751133 19.613489 L 14.013907 13.90747 Z M 5.591387 13.907909 " stroke="#000000" stroke-width="0.900019" stroke-opacity="1" stroke-miterlimit="4"/><path stroke-linecap="butt" transform="matrix(0.747452, -0.061772, 0.061772, 0.747452, 152.065411, 281.088498)" fill="none" stroke-linejoin="miter" d="M 8.40316 13.427022 C 11.324459 13.428049 14.30324 12.101172 14.300147 8.217932 C 14.303103 4.324739 11.328265 3.200905 8.401775 3.19945 L 4.727876 3.19894 L 4.728994 4.829572 L 8.277459 4.830168 C 11.611822 4.828749 12.458584 6.534495 12.455412 8.217033 C 12.456229 10.041006 11.611401 11.789866 8.277038 11.791285 L 4.728573 11.790689 L 4.729261 13.426512 Z M 3.88817 19.999361 C 4.201754 19.999146 4.272192 19.905672 4.270261 19.612851 L 4.272859 3.203144 L 2.757279 3.203317 C 2.475268 3.200915 2.377118 3.250291 2.381237 3.579875 L 2.378381 19.613283 C 2.380312 19.906103 2.450879 20.000779 2.759271 20.000135 Z M 3.88817 19.999361 " stroke="#000000" stroke-width="0.900019" stroke-opacity="1" stroke-miterlimit="4"/><path stroke-linecap="butt" transform="matrix(0.741285, -0.114004, 0.114004, 0.741285, 164.230967, 280.075381)" fill="none" stroke-linejoin="miter" d="M 2.013814 20.000514 C 2.277538 19.998916 2.381676 19.904271 2.521047 19.6148 L 8.565395 6.079409 L 8.591925 6.07822 L 11.905896 13.448859 L 13.776121 13.451927 L 8.907763 3.133679 C 8.805985 2.938861 8.733909 2.790768 8.612342 2.79315 L 8.543837 2.793154 C 8.40168 2.792369 8.347834 2.936906 8.233801 3.130151 L 0.408481 19.611349 C 0.311873 19.828352 0.41167 20.001787 0.622332 20.002568 Z M 5.591191 13.905761 L 4.823864 15.537249 L 12.765288 15.536036 L 14.641272 19.613366 C 14.78107 19.903613 14.882446 19.998248 15.119639 19.997839 L 16.510329 20.000933 C 16.752671 20.001316 16.847301 19.831435 16.75463 19.61167 L 14.017298 13.905314 Z M 5.591191 13.905761 " stroke="#000000" stroke-width="0.900019" stroke-opacity="1" stroke-miterlimit="4"/><path stroke-linecap="butt" transform="matrix(0.731556, -0.165306, 0.165306, 0.731556, 177.926258, 277.899884)" fill="none" stroke-linejoin="miter" d="M 6.35516 4.931536 L 6.359335 19.611172 C 6.35716 19.904361 6.431385 20.001228 6.746043 20.002914 L 7.899627 20.001941 C 8.182656 20.00182 8.257566 19.906614 8.25466 19.612277 L 8.256646 3.203988 L 0.621099 3.203327 C 0.33299 3.2023 0.242839 3.294062 0.241813 3.582171 L 0.23839 4.542534 C 0.242443 4.831791 0.311588 4.92751 0.621166 4.928048 Z M 14.018404 4.927777 C 14.301433 4.927656 14.371262 4.831302 14.372289 4.543193 L 14.370631 3.581682 C 14.371658 3.293573 14.327914 3.203594 14.013256 3.201907 L 8.711426 3.19996 L 8.710346 4.929761 Z M 14.018404 4.927777 " stroke="#000000" stroke-width="0.900019" stroke-opacity="1" stroke-miterlimit="4"/><path stroke-linecap="butt" transform="matrix(0.718281, -0.215807, 0.215807, 0.718281, 189.644903, 275.247229)" fill="none" stroke-linejoin="miter" d="M 2.016611 20.002845 C 2.278518 19.99996 2.377832 19.904717 2.519131 19.615432 L 8.565508 6.07965 L 8.588457 6.075668 L 11.903385 13.450802 L 13.775138 13.447584 L 8.907451 3.131481 C 8.807757 2.938378 8.737477 2.792181 8.612261 2.792628 L 8.541422 2.793098 C 8.401241 2.789049 8.351293 2.937192 8.233481 3.130205 L 0.409919 19.612566 C 0.312551 19.828037 0.408263 19.99819 0.619283 20.00177 Z M 5.588027 13.908153 L 4.822592 15.53265 L 12.766563 15.537424 L 14.641622 19.613949 C 14.782182 19.906343 14.883912 20.002168 15.117881 20.001766 L 16.510221 20.001342 C 16.750677 19.997451 16.844533 19.82987 16.752333 19.611826 L 14.017898 13.906642 Z M 5.588027 13.908153 " stroke="#000000" stroke-width="0.900019" stroke-opacity="1" stroke-miterlimit="4"/></svg>